<svg xmlns="http://www.w3.org/2000/svg" viewBox="0 0 24 24" id="uber"><path fill="#303c42" d="M21 1H3c-1.103 0-2 .897-2 2v18c0 1.103.897 2 2 2h18c1.103 0 2-.897 2-2V3c0-1.103-.897-2-2-2z"></path><path fill="#455a64" d="M22 21c0 .551-.449 1-1 1H3c-.551 0-1-.449-1-1V3c0-.551.449-1 1-1h18c.551 0 1 .449 1 1v18z"></path><circle cx="12" cy="12" r="8" fill="#303c42"></circle><path fill="#fff" d="M12 19c-3.691 0-6.716-2.874-6.975-6.5H9v2a.5.5 0 0 0 .5.5h5a.5.5 0 0 0 .5-.5v-5a.5.5 0 0 0-.5-.5h-5a.5.5 0 0 0-.5.5v2H5.025C5.284 7.874 8.309 5 12 5c3.86 0 7 3.14 7 7s-3.14 7-7 7z"></path><path fill="#455a64" d="M10 10h4v4h-4z"></path><path fill="#fff" d="M2.5 21.5v-18c0-.551.449-1 1-1h18a.98.98 0 0 1 .408.092A.999.999 0 0 0 21 2H3c-.551 0-1 .449-1 1v18c0 .405.245.751.592.908A.98.98 0 0 1 2.5 21.5z" opacity=".2"></path><path d="M10.5 10.5H14V10h-4v4h.5z" opacity=".1"></path><linearGradient id="a" x1="12.089" x2="21.708" y1="12.087" y2="21.706" gradientUnits="userSpaceOnUse"><stop offset="0" stop-opacity=".1"></stop><stop offset="1" stop-opacity="0"></stop></linearGradient><path fill="url(#a)" d="M17.738 6.438A7.969 7.969 0 0 1 20 12c0 4.411-3.589 8-8 8a7.966 7.966 0 0 1-5.513-2.217L10.704 22H21c.551 0 1-.449 1-1V10.7l-4.262-4.262z"></path><linearGradient id="b" x1="-.652" x2="24.652" y1="6.1" y2="17.9" gradientUnits="userSpaceOnUse"><stop offset="0" stop-color="#fff" stop-opacity=".2"></stop><stop offset="1" stop-color="#fff" stop-opacity="0"></stop></linearGradient><path fill="url(#b)" d="M21 1H3c-1.103 0-2 .897-2 2v18c0 1.103.897 2 2 2h18c1.103 0 2-.897 2-2V3c0-1.103-.897-2-2-2z"></path></svg>